<?xml version="1.0" encoding="utf-8"?>
<!-- Generator: Adobe Illustrator 28.3.0, SVG Export Plug-In . SVG Version: 6.00 Build 0)  -->
<svg version="1.1" id="Layer_1" xmlns="http://www.w3.org/2000/svg" xmlns:xlink="http://www.w3.org/1999/xlink" x="0px" y="0px"
	 viewBox="0 0 120 120" style="enable-background:new 0 0 120 120;" xml:space="preserve">
<style type="text/css">
	.st0{fill:#161616;}
	.st1{fill:#FDFDFD;}
</style>
<path class="st0" d="M105.5,23.5L68.9,2.4C66.1,0.8,63.1,0,60,0s-6.1,0.8-8.9,2.4L14.5,23.5c-5.5,3.2-8.9,9-8.9,15.3v42.3
	c0,6.3,3.4,12.2,8.9,15.3l36.6,21.1c2.7,1.6,5.8,2.4,8.9,2.4s6.1-0.8,8.8-2.4l36.6-21.1c5.5-3.2,8.9-9,8.9-15.3V38.9
	C114.3,32.5,111,26.7,105.5,23.5z M92.6,78.8L60,57.9L27.4,78.8V41.2L60,22.3l32.6,18.8V78.8z"/>
<polygon class="st1" points="92.6,41.2 92.6,78.8 60,57.9 27.4,78.8 27.4,41.2 60,22.3 "/>
</svg>
