<svg width="24" height="24" viewBox="0 0 24 24" fill="none" xmlns="http://www.w3.org/2000/svg">
<g id="Group">
<g id="Group_2">
<path id="Rectangle" fill-rule="evenodd" clip-rule="evenodd" d="M8.5 12L12.0001 8.49986L15.501 12.0007L12.0009 15.5009L8.5 12Z" stroke="#FDFDFD" strokeWidth="1.49999" strokeLinecap="round" strokeLinejoin="round"/>
<path id="Path" d="M5 12.25L3 14.25L1 12.25" stroke="#FDFDFD" strokeWidth="1.5" strokeLinecap="round" strokeLinejoin="round"/>
<path id="Path_2" d="M19 11.75L21 9.75L23 11.75" stroke="#FDFDFD" strokeWidth="1.5" strokeLinecap="round" strokeLinejoin="round"/>
<path id="Path_3" d="M19.371 6.845C17.744 4.522 15.052 3 12 3C7.029 3 3 7.029 3 12C3 12.694 3.086 13.366 3.235 14.015" stroke="#FDFDFD" strokeWidth="1.5" strokeLinecap="round" strokeLinejoin="round"/>
<path id="Path_4" d="M4.62891 17.1554C6.25591 19.4784 8.94791 21.0004 11.9999 21.0004C16.9709 21.0004 20.9999 16.9714 20.9999 12.0004C20.9999 11.3064 20.9139 10.6344 20.7649 9.98535" stroke="#FDFDFD" strokeWidth="1.5" strokeLinecap="round" strokeLinejoin="round"/>
</g>
</g>
</svg>
