<svg width="18" height="18" viewBox="0 0 18 18" fill="none" xmlns="http://www.w3.org/2000/svg">
<g id="Group">
<g id="Group_2">
<path id="Path" fill-rule="evenodd" clip-rule="evenodd" d="M11.5 16.4993H2.33333C1.87333 16.4993 1.5 16.126 1.5 15.666V6.49935C1.5 6.03935 1.87333 5.66602 2.33333 5.66602H11.5C11.96 5.66602 12.3333 6.03935 12.3333 6.49935V15.666C12.3333 16.126 11.96 16.4993 11.5 16.4993Z" stroke="#FDFDFD" strokeWidth="1.2" strokeLinecap="round" strokeLinejoin="round"/>
<path id="Path_2" d="M16.4997 3.16667V2.33333C16.4997 1.87333 16.1263 1.5 15.6663 1.5H14.833" stroke="#FDFDFD" strokeWidth="1.2" strokeLinecap="round" strokeLinejoin="round"/>
<path id="Path_3" d="M16.4997 11.5V12.3333C16.4997 12.7933 16.1263 13.1667 15.6663 13.1667H14.833" stroke="#FDFDFD" strokeWidth="1.2" strokeLinecap="round" strokeLinejoin="round"/>
<path id="Path_4" d="M4.83301 3.16667V2.33333C4.83301 1.87333 5.20634 1.5 5.66634 1.5H6.49967" stroke="#FDFDFD" strokeWidth="1.2" strokeLinecap="round" strokeLinejoin="round"/>
<path id="Path_5" d="M9.83301 1.49967H11.4997" stroke="#FDFDFD" strokeWidth="1.2" strokeLinecap="round" strokeLinejoin="round"/>
<path id="Path_6" d="M16.5 8.16667V6.5" stroke="#FDFDFD" strokeWidth="1.2" strokeLinecap="round" strokeLinejoin="round"/>
</g>
</g>
</svg>
