<svg width="20" height="20" viewBox="0 0 20 20" fill="none" xmlns="http://www.w3.org/2000/svg">
<path d="M17.4017 10.3896C15.825 13.3055 12.9125 15.833 10 15.833" stroke="#FDFDFD" strokeWidth="1.2" strokeLinecap="round" strokeLinejoin="round"/>
<path d="M15.8994 7.43457C16.4752 8.10874 16.9869 8.84374 17.4019 9.61124C17.5327 9.85374 17.5327 10.1479 17.4019 10.3904" stroke="#FDFDFD" strokeWidth="1.2" strokeLinecap="round" strokeLinejoin="round"/>
<path d="M4.16699 15.8337L15.8337 4.16699" stroke="#FDFDFD" strokeWidth="1.2" strokeLinecap="round" strokeLinejoin="round"/>
<path d="M8.14375 11.8562C7.11875 10.8312 7.11875 9.16875 8.14375 8.14375C9.16875 7.11875 10.8312 7.11875 11.8562 8.14375" stroke="#FDFDFD" strokeWidth="1.2" strokeLinecap="round" strokeLinejoin="round"/>
<path d="M14.2031 5.79699C12.914 4.79949 11.4565 4.16699 9.99979 4.16699C7.08729 4.16699 4.17479 6.69449 2.59813 9.61116C2.46729 9.85366 2.46729 10.1478 2.59813 10.3903C3.38646 11.8478 4.50813 13.2078 5.79646 14.2045" stroke="#FDFDFD" strokeWidth="1.2" strokeLinecap="round" strokeLinejoin="round"/>
</svg>
