<svg width="119" height="32" viewBox="0 0 119 32" fill="none" xmlns="http://www.w3.org/2000/svg">
<g id="Layer_1" clip-path="url(#clip0_8048_8076)">
<g id="Group">
<path id="Vector" d="M26.62 6.27L16.85 0.63C16.12 0.21 15.3 0 14.49 0C13.67 0 12.86 0.21 12.13 0.63L2.36 6.27C0.9 7.11 0 8.67 0 10.36V21.64C0 23.33 0.9 24.89 2.36 25.73L12.13 31.37C12.86 31.79 13.68 32 14.49 32C15.3 32 16.12 31.79 16.85 31.37L26.62 25.73C28.08 24.89 28.98 23.33 28.98 21.64V10.36C28.98 8.67 28.08 7.11 26.62 6.27ZM23.18 21.02L14.49 15.44L5.8 21.02V10.98L14.49 5.96L23.18 10.98V21.02Z" fill="#101010"/>
<path id="Vector_2" opacity="0.1" d="M14.4898 5.96094V15.4409L5.7998 21.0209V10.9809L14.4898 5.96094Z" fill="#161616"/>
</g>
<g id="Group_2">
<path id="Vector_3" d="M47.8599 8.03125H51.4099V23.7112H47.3999L43.5699 17.4612C42.4499 15.5912 41.6299 14.1812 41.1299 13.1912C41.1999 15.4612 41.2199 17.8813 41.2199 20.4413V23.7212H37.6699V8.04125H41.6799L45.5099 14.2913C46.5899 16.0712 47.3999 17.5013 47.9499 18.6113C47.8799 16.3213 47.8599 13.9012 47.8599 11.3212V8.04125V8.03125Z" fill="#101010"/>
<path id="Vector_4" d="M54.6598 22.3403C53.5798 21.2603 53.0298 19.8303 53.0298 18.0203C53.0298 16.2103 53.5798 14.7603 54.6598 13.6803C55.7398 12.6003 57.1698 12.0703 58.9998 12.0703C60.8298 12.0703 62.2598 12.6003 63.3398 13.6803C64.4198 14.7603 64.9498 16.2103 64.9498 18.0203C64.9498 19.8303 64.4198 21.2603 63.3398 22.3403C62.2598 23.4203 60.8098 23.9703 58.9998 23.9703C57.1898 23.9703 55.7398 23.4203 54.6598 22.3403ZM61.4698 18.0303C61.4698 15.9203 60.5698 14.8403 58.9998 14.8403C57.4298 14.8403 56.5098 15.9203 56.5098 18.0303C56.5098 20.1403 57.4098 21.2203 58.9998 21.2203C60.5898 21.2203 61.4698 20.1403 61.4698 18.0303Z" fill="#101010"/>
<path id="Vector_5" d="M73.8 12.208V15.338H72.92C70.92 15.338 69.9 16.378 69.9 18.418V23.708H66.46V12.348H69.81V14.458C70.34 12.938 71.42 12.168 73.05 12.168C73.23 12.168 73.47 12.188 73.8 12.208Z" fill="#101010"/>
<path id="Vector_6" d="M82.5898 8.02953H86.0298V23.7095H82.6798V22.2295C81.9098 23.3995 80.7598 23.9695 79.2698 23.9695C77.7798 23.9695 76.5398 23.4395 75.6598 22.3595C74.7598 21.2795 74.3198 19.8495 74.3198 18.0195C74.3198 16.1895 74.7598 14.7595 75.6598 13.6795C76.5398 12.5995 77.7498 12.0695 79.2698 12.0695C80.6998 12.0695 81.8198 12.6195 82.5998 13.6995V8.01953L82.5898 8.02953ZM82.6498 18.0295C82.6498 15.8895 81.8398 14.8395 80.2098 14.8395C78.6898 14.8395 77.7898 15.9895 77.7898 18.1195C77.7898 20.2495 78.5998 21.2195 80.2098 21.2195C81.8198 21.2195 82.6498 20.1595 82.6498 18.0295Z" fill="#101010"/>
<path id="Vector_7" d="M89.17 22.3403C88.09 21.2603 87.54 19.8303 87.54 18.0203C87.54 16.2103 88.09 14.7603 89.17 13.6803C90.25 12.6003 91.68 12.0703 93.51 12.0703C95.34 12.0703 96.77 12.6003 97.85 13.6803C98.93 14.7603 99.46 16.2103 99.46 18.0203C99.46 19.8303 98.93 21.2603 97.85 22.3403C96.77 23.4203 95.32 23.9703 93.51 23.9703C91.7 23.9703 90.25 23.4203 89.17 22.3403ZM95.98 18.0303C95.98 15.9203 95.08 14.8403 93.51 14.8403C91.94 14.8403 91.02 15.9203 91.02 18.0303C91.02 20.1403 91.92 21.2203 93.51 21.2203C95.1 21.2203 95.98 20.1403 95.98 18.0303Z" fill="#101010"/>
<path id="Vector_8" d="M118.62 16.3298V23.7098H115.18V16.9298C115.18 15.6498 114.61 15.0098 113.48 15.0098C112.35 15.0098 111.52 15.7798 111.52 17.4298V23.7098H108.08V16.9298C108.08 15.6498 107.51 15.0098 106.38 15.0098C105.25 15.0098 104.4 15.7798 104.4 17.4298V23.7098H100.96V12.3498H104.31V13.9598C105.15 12.6998 106.23 12.0898 107.55 12.0898C109.27 12.0898 110.43 12.7698 111.07 14.1398C111.99 12.7698 113.18 12.0898 114.62 12.0898C117.09 12.0898 118.61 13.6298 118.61 16.3398L118.62 16.3298Z" fill="#101010"/>
</g>
</g>
<defs>
<clipPath id="clip0_8048_8076">
<rect width="118.62" height="32" fill="white"/>
</clipPath>
</defs>
</svg>
