<svg width="119" height="32" viewBox="0 0 119 32" fill="none" xmlns="http://www.w3.org/2000/svg">
<g id="Layer_1" clip-path="url(#clip0_6254_126239)">
<g id="Group">
<path id="Vector" d="M26.62 6.27L16.85 0.63C16.12 0.21 15.3 0 14.49 0C13.67 0 12.86 0.21 12.13 0.63L2.36 6.27C0.9 7.11 0 8.67 0 10.36V21.64C0 23.33 0.9 24.89 2.36 25.73L12.13 31.37C12.86 31.79 13.68 32 14.49 32C15.3 32 16.12 31.79 16.85 31.37L26.62 25.73C28.08 24.89 28.98 23.33 28.98 21.64V10.36C28.98 8.67 28.08 7.11 26.62 6.27ZM23.18 21.02L14.49 15.44L5.8 21.02V10.98L14.49 5.96L23.18 10.98V21.02Z" fill="#FDFDFD"/>
<path id="Vector_2" opacity="0.1" d="M14.4898 5.95996V15.44L5.7998 21.02V10.98L14.4898 5.95996Z" fill="#F5F5F5"/>
</g>
<g id="Group_2">
<path id="Vector_3" d="M47.8599 8.02979H51.4099V23.7098H47.3999L43.5699 17.4598C42.4499 15.5898 41.6299 14.1798 41.1299 13.1898C41.1999 15.4598 41.2199 17.8798 41.2199 20.4398V23.7198H37.6699V8.03979H41.6799L45.5099 14.2898C46.5899 16.0698 47.3999 17.4998 47.9499 18.6098C47.8799 16.3198 47.8599 13.8998 47.8599 11.3198V8.03979V8.02979Z" fill="#FDFDFD"/>
<path id="Vector_4" d="M54.6598 22.3398C53.5798 21.2598 53.0298 19.8298 53.0298 18.0198C53.0298 16.2098 53.5798 14.7598 54.6598 13.6798C55.7398 12.5998 57.1698 12.0698 58.9998 12.0698C60.8298 12.0698 62.2598 12.5998 63.3398 13.6798C64.4198 14.7598 64.9498 16.2098 64.9498 18.0198C64.9498 19.8298 64.4198 21.2598 63.3398 22.3398C62.2598 23.4198 60.8098 23.9698 58.9998 23.9698C57.1898 23.9698 55.7398 23.4198 54.6598 22.3398ZM61.4698 18.0298C61.4698 15.9198 60.5698 14.8398 58.9998 14.8398C57.4298 14.8398 56.5098 15.9198 56.5098 18.0298C56.5098 20.1398 57.4098 21.2198 58.9998 21.2198C60.5898 21.2198 61.4698 20.1398 61.4698 18.0298Z" fill="#FDFDFD"/>
<path id="Vector_5" d="M73.8 12.2099V15.3399H72.92C70.92 15.3399 69.9 16.3799 69.9 18.4199V23.7099H66.46V12.3499H69.81V14.4599C70.34 12.9399 71.42 12.1699 73.05 12.1699C73.23 12.1699 73.47 12.1899 73.8 12.2099Z" fill="#FDFDFD"/>
<path id="Vector_6" d="M82.5898 8.03002H86.0298V23.71H82.6798V22.23C81.9098 23.4 80.7598 23.97 79.2698 23.97C77.7798 23.97 76.5398 23.44 75.6598 22.36C74.7598 21.28 74.3198 19.85 74.3198 18.02C74.3198 16.19 74.7598 14.76 75.6598 13.68C76.5398 12.6 77.7498 12.07 79.2698 12.07C80.6998 12.07 81.8198 12.62 82.5998 13.7V8.02002L82.5898 8.03002ZM82.6498 18.03C82.6498 15.89 81.8398 14.84 80.2098 14.84C78.6898 14.84 77.7898 15.99 77.7898 18.12C77.7898 20.25 78.5998 21.22 80.2098 21.22C81.8198 21.22 82.6498 20.16 82.6498 18.03Z" fill="#FDFDFD"/>
<path id="Vector_7" d="M89.17 22.3398C88.09 21.2598 87.54 19.8298 87.54 18.0198C87.54 16.2098 88.09 14.7598 89.17 13.6798C90.25 12.5998 91.68 12.0698 93.51 12.0698C95.34 12.0698 96.77 12.5998 97.85 13.6798C98.93 14.7598 99.46 16.2098 99.46 18.0198C99.46 19.8298 98.93 21.2598 97.85 22.3398C96.77 23.4198 95.32 23.9698 93.51 23.9698C91.7 23.9698 90.25 23.4198 89.17 22.3398ZM95.98 18.0298C95.98 15.9198 95.08 14.8398 93.51 14.8398C91.94 14.8398 91.02 15.9198 91.02 18.0298C91.02 20.1398 91.92 21.2198 93.51 21.2198C95.1 21.2198 95.98 20.1398 95.98 18.0298Z" fill="#FDFDFD"/>
<path id="Vector_8" d="M118.62 16.3298V23.7098H115.18V16.9298C115.18 15.6498 114.61 15.0098 113.48 15.0098C112.35 15.0098 111.52 15.7798 111.52 17.4298V23.7098H108.08V16.9298C108.08 15.6498 107.51 15.0098 106.38 15.0098C105.25 15.0098 104.4 15.7798 104.4 17.4298V23.7098H100.96V12.3498H104.31V13.9598C105.15 12.6998 106.23 12.0898 107.55 12.0898C109.27 12.0898 110.43 12.7698 111.07 14.1398C111.99 12.7698 113.18 12.0898 114.62 12.0898C117.09 12.0898 118.61 13.6298 118.61 16.3398L118.62 16.3298Z" fill="#FDFDFD"/>
</g>
</g>
<defs>
<clipPath id="clip0_6254_126239">
<rect width="118.62" height="32" fill="white"/>
</clipPath>
</defs>
</svg>
