<svg width="20" height="20" viewBox="0 0 16 17" fill="none" xmlns="http://www.w3.org/2000/svg">
<g id="Group">
<path id="Path" fill-rule="evenodd" clip-rule="evenodd" d="M13.0007 9.45964L14.4232 10.8822C14.5795 11.0385 14.6673 11.2505 14.6673 11.4715V12.168C14.6673 12.6282 14.2942 13.0013 13.834 13.0013H2.16732C1.70708 13.0013 1.33398 12.6282 1.33398 12.168V11.4715C1.33399 11.2505 1.42178 11.0385 1.57806 10.8822L3.00065 9.45964V5.91797C3.00065 3.15654 5.23923 0.917969 8.00065 0.917969V0.917969C9.32673 0.917969 10.5985 1.44475 11.5362 2.38243C12.4739 3.32012 13.0007 4.59189 13.0007 5.91797V9.45964Z" stroke="#FDFDFD" stroke-width="1.5" stroke-linecap="round" stroke-linejoin="round"/>
<path id="Path_2" d="M5.5 13V13.2083C5.5 14.589 6.61929 15.7083 8 15.7083C9.38071 15.7083 10.5 14.589 10.5 13.2083V13" stroke="#FDFDFD" stroke-width="1.5" stroke-linecap="round" stroke-linejoin="round"/>
</g>
</svg>
