<svg width="18" height="18" viewBox="0 0 18 18" fill="none" xmlns="http://www.w3.org/2000/svg">
<g id="Group">
<rect id="Rectangle" x="10.25" y="4.83301" width="2.91667" height="2.91667" rx="0.5" stroke="#FDFDFD" stroke-width="1.2" stroke-linecap="round" stroke-linejoin="round"/>
<rect id="Rectangle_2" x="4.83301" y="4.83301" width="2.91667" height="2.91667" rx="0.5" stroke="#FDFDFD" stroke-width="1.2" stroke-linecap="round" stroke-linejoin="round"/>
<rect id="Rectangle_3" x="4.83301" y="10.25" width="2.91667" height="2.91667" rx="0.5" stroke="#FDFDFD" stroke-width="1.2" stroke-linecap="round" stroke-linejoin="round"/>
<path id="Path" d="M12.333 16.4997H13.9997C15.3804 16.4997 16.4997 15.3804 16.4997 13.9997V12.333" stroke="#FDFDFD" stroke-width="1.2" stroke-linecap="round" stroke-linejoin="round"/>
<path id="Path_2" d="M12.333 1.5H13.9997C15.3804 1.5 16.4997 2.61929 16.4997 4V5.66667" stroke="#FDFDFD" stroke-width="1.2" stroke-linecap="round" stroke-linejoin="round"/>
<path id="Path_3" d="M1.5 12.333V13.9997C1.5 15.3804 2.61929 16.4997 4 16.4997H5.66667" stroke="#FDFDFD" stroke-width="1.2" stroke-linecap="round" stroke-linejoin="round"/>
<path id="Path_4" d="M1.5 5.66667V4C1.5 2.61929 2.61929 1.5 4 1.5H5.66667" stroke="#FDFDFD" stroke-width="1.2" stroke-linecap="round" stroke-linejoin="round"/>
<path id="Path_5" d="M10.2958 10.2497L10.2917 10.2538L10.2875 10.2497L10.2917 10.2455L10.2958 10.2497" stroke="#FDFDFD" stroke-width="1.2" stroke-linecap="round" stroke-linejoin="round"/>
<path id="Path_6" d="M13.1288 10.2497L13.1247 10.2538L13.1205 10.2497L13.1247 10.2455L13.1288 10.2497" stroke="#FDFDFD" stroke-width="1.2" stroke-linecap="round" stroke-linejoin="round"/>
<path id="Path_7" d="M10.2958 13.1667L10.2917 13.1708L10.2875 13.1667L10.2917 13.1625L10.2958 13.1667" stroke="#FDFDFD" stroke-width="1.2" stroke-linecap="round" stroke-linejoin="round"/>
<path id="Path_8" d="M13.1288 13.1667L13.1247 13.1708L13.1205 13.1667L13.1247 13.1625L13.1288 13.1667" stroke="#FDFDFD" stroke-width="1.2" stroke-linecap="round" stroke-linejoin="round"/>
<path id="Path_9" d="M11.7128 11.7087L11.7087 11.7128L11.7045 11.7087L11.7087 11.7045L11.7128 11.7087" stroke="#FDFDFD" stroke-width="1.2" stroke-linecap="round" stroke-linejoin="round"/>
</g>
</svg>
