<svg width="20" height="20" viewBox="0 0 20 20" fill="none" xmlns="http://www.w3.org/2000/svg">
<g id="Group">
<g id="Group_2">
<path id="Path" d="M11.2725 9.27083V8.1475C11.2725 7.445 10.7025 6.875 10 6.875V6.875C9.29754 6.875 8.72754 7.445 8.72754 8.1475V9.27083" stroke="#FDFDFD" stroke-width="1.2" stroke-linecap="round" stroke-linejoin="round"/>
<path id="Path_2" fill-rule="evenodd" clip-rule="evenodd" d="M11.458 9.27148H8.54134C8.08134 9.27148 7.70801 9.64482 7.70801 10.1048V11.8748C7.70801 12.3348 8.08134 12.7082 8.54134 12.7082H11.458C11.918 12.7082 12.2913 12.3348 12.2913 11.8748V10.1048C12.2913 9.64482 11.918 9.27148 11.458 9.27148Z" stroke="#FDFDFD" stroke-width="1.2" stroke-linecap="round" stroke-linejoin="round"/>
</g>
<g id="Group_3">
<path id="Path_3" fill-rule="evenodd" clip-rule="evenodd" d="M16.6663 9.36813C16.6663 13.0081 14.0355 16.4198 10.433 17.4398C10.1513 17.5198 9.84801 17.5198 9.56634 17.4398C5.96384 16.4206 3.33301 13.0081 3.33301 9.36813V6.01146C3.33301 5.33479 3.74217 4.72479 4.36884 4.46896L8.42217 2.81063C9.43384 2.39646 10.5672 2.39646 11.578 2.81063L15.6313 4.46896C16.2572 4.72479 16.6663 5.33479 16.6663 6.01146V9.36813Z" stroke="#FDFDFD" stroke-width="1.2" stroke-linecap="round" stroke-linejoin="round"/>
</g>
</g>
</svg>
