<svg width="24" height="24" viewBox="0 0 24 24" fill="none" xmlns="http://www.w3.org/2000/svg">
<g id="Group">
<path id="Path" d="M17.0018 8.99888V6.99805H15.001" stroke="#FDFDFD" strokeWidth="1.5" strokeLinecap="round" strokeLinejoin="round"/>
<path id="Path_2" d="M9.99902 9.285L11.2856 7.99846L14.0007 9.9993L17.0019 6.99805" stroke="#FDFDFD" strokeWidth="1.5" strokeLinecap="round" strokeLinejoin="round"/>
<path id="Path_3" d="M14.001 13.5011L17.0022 13.5012" stroke="#FDFDFD" strokeWidth="1.5" strokeLinecap="round" strokeLinejoin="round"/>
<path id="Path_4" d="M14.001 16.5021L17.0022 16.5022" stroke="#FDFDFD" strokeWidth="1.5" strokeLinecap="round" strokeLinejoin="round"/>
<path id="Path_5" d="M2.99609 13.6006V20.4034C2.99723 21.2872 4.7877 22.0041 6.99776 22.0041C9.20782 22.0041 10.9983 21.2872 10.9994 20.4034V13.6006" stroke="#FDFDFD" strokeWidth="1.5" strokeLinecap="round" strokeLinejoin="round"/>
<path id="Path_6" d="M10.9983 13.6007C10.9983 14.4845 9.20668 15.2013 6.99662 15.2013C4.78656 15.2013 2.99609 14.4845 2.99609 13.6007C2.99609 12.7157 4.78884 12 6.99776 12C9.20668 12 10.9983 12.7169 10.9994 13.6007" stroke="#FDFDFD" strokeWidth="1.5" strokeLinecap="round" strokeLinejoin="round"/>
<path id="Path_7" d="M2.99707 17.002C2.99707 17.8858 4.78754 18.6026 6.9976 18.6026C9.20766 18.6026 10.9993 17.8858 10.9993 17.002" stroke="#FDFDFD" strokeWidth="1.5" strokeLinecap="round" strokeLinejoin="round"/>
<path id="Path_8" d="M4.99707 8.99859V4.99693C4.99707 3.8919 5.89287 2.99609 6.9979 2.99609H19.0029C20.1079 2.99609 21.0037 3.8919 21.0037 4.99693V18.0023C21.0037 19.1074 20.1079 20.0032 19.0029 20.0032H14.0008" stroke="#FDFDFD" strokeWidth="1.5" strokeLinecap="round" strokeLinejoin="round"/>
</g>
</svg>
