<svg width="24" height="24" viewBox="0 0 24 24" fill="none" xmlns="http://www.w3.org/2000/svg">
<g id="Group">
<g id="Group_2">
<path id="Path" d="M18.0029 9.99901V7.82611C18.0029 7.29588 17.7918 6.78667 17.4167 6.41152L14.5875 3.58234C14.2123 3.20718 13.7031 2.99609 13.1729 2.99609H5.9979C4.89244 2.99609 3.99707 3.89147 3.99707 4.99693V19.0028C3.99707 20.1082 4.89244 21.0036 5.9979 21.0036H9.99957" stroke="#FDFDFD" stroke-width="1.5" stroke-linecap="round" stroke-linejoin="round"/>
<path id="Path_2" d="M18.0031 7.99818H14.0014C13.4492 7.99818 13.001 7.54999 13.001 6.99776V2.99609" stroke="#FDFDFD" stroke-width="1.5" stroke-linecap="round" stroke-linejoin="round"/>
<path id="Path_3" d="M16.5019 22.0037C14.0158 22.0037 12 19.9879 12 17.5019C12 15.0158 14.0158 13 16.5019 13C18.9889 13 21.0037 15.0158 21.0037 17.5019C21.0037 19.9879 18.9889 22.0037 16.5019 22.0037" stroke="#FDFDFD" stroke-width="1.5" stroke-linecap="round" stroke-linejoin="round"/>
<path id="Path_4" d="M16.3955 15.9844V17.7431L17.7781 18.5865" stroke="#FDFDFD" stroke-width="1.5" stroke-linecap="round" stroke-linejoin="round"/>
</g>
</g>
</svg>
