<svg width="21" height="20" viewBox="0 0 21 20" fill="none" xmlns="http://www.w3.org/2000/svg">
<path fill-rule="evenodd" clip-rule="evenodd" d="M3.09813 10.3895C2.96729 10.147 2.96729 9.85283 3.09813 9.61033C4.67479 6.69449 7.58729 4.16699 10.4998 4.16699C13.4123 4.16699 16.3248 6.69449 17.9015 9.61116C18.0323 9.85366 18.0323 10.1478 17.9015 10.3903C16.3248 13.3062 13.4123 15.8337 10.4998 15.8337C7.58729 15.8337 4.67479 13.3062 3.09813 10.3895Z" stroke="#FDFDFD" strokeWidth="1.2" strokeLinecap="round" strokeLinejoin="round"/>
<path d="M12.2678 8.23223C13.2441 9.20854 13.2441 10.7915 12.2678 11.7678C11.2915 12.7441 9.70854 12.7441 8.73223 11.7678C7.75592 10.7915 7.75592 9.20854 8.73223 8.23223C9.70854 7.25592 11.2915 7.25592 12.2678 8.23223" stroke="#FDFDFD" strokeWidth="1.2" strokeLinecap="round" strokeLinejoin="round"/>
</svg>
